<?xml version="1.0" encoding="utf-8"?>
<svg version="1.1" width="188px" height="165px" style="shape-rendering:geometricPrecision; text-rendering:geometricPrecision; image-rendering:optimizeQuality; fill-rule:evenodd; clip-rule:evenodd" xmlns="http://www.w3.org/2000/svg">
  <g>
    <path style="opacity: 1; fill: none;" d="M -0.5,-0.5 C 62.1667,-0.5 124.833,-0.5 187.5,-0.5C 187.5,54.5 187.5,109.5 187.5,164.5C 124.833,164.5 62.1667,164.5 -0.5,164.5C -0.5,109.5 -0.5,54.5 -0.5,-0.5 Z"/>
  </g>
  <g>
    <path style="opacity:1" fill="#7f4a04" d="M 28.5,10.5 C 29.8221,10.33 30.9887,10.6634 32,11.5C 32.6667,15.8333 32.6667,20.1667 32,24.5C 27.5749,36.5333 24.2416,48.8666 22,61.5C 17.7541,67.2446 12.2541,68.7446 5.5,66C 1.92957,63.3224 0.262907,59.6557 0.5,55C 3.5289,36.1499 12.8622,21.3166 28.5,10.5 Z"/>
  </g>
  <g>
    <path style="opacity:1" fill="#855213" d="M 58.5,22.5 C 63.6033,21.6464 66.1033,23.6464 66,28.5C 63.3333,32.5 60.6667,32.5 58,28.5C 57.5099,26.4546 57.6765,24.4546 58.5,22.5 Z"/>
  </g>
  <g>
    <path style="opacity:1" fill="#814e0d" d="M 41.5,29.5 C 45.6759,28.8307 47.0093,30.3307 45.5,34C 48.9542,34.2929 49.2876,35.6262 46.5,38C 42.2579,40.2168 39.2579,39.0502 37.5,34.5C 38.1598,32.1853 39.4931,30.5186 41.5,29.5 Z"/>
  </g>
  <g>
    <path style="opacity:1" fill="#7f4a03" d="M 71.5,143.5 C 70.8333,147.833 70.1667,152.167 69.5,156.5C 66.7299,154.634 65.2299,151.968 65,148.5C 64.6667,139.5 64.3333,130.5 64,121.5C 62.7439,113.487 59.2439,106.654 53.5,101C 50.4536,98.826 47.1202,98.1593 43.5,99C 42.9415,99.7247 42.6082,100.558 42.5,101.5C 44.7744,104.95 47.2744,108.283 50,111.5C 54.3985,127.445 54.3985,143.445 50,159.5C 49.5,160.667 48.6667,161.5 47.5,162C 38.5,162.667 29.5,162.667 20.5,162C 19.5838,161.626 18.7504,161.126 18,160.5C 17.3333,157.833 17.3333,155.167 18,152.5C 18.9025,151.299 20.0692,150.465 21.5,150C 29.3847,150.775 33.5513,147.275 34,139.5C 35.9787,123.502 35.9787,107.502 34,91.5C 32.6138,83.3941 29.1138,76.3941 23.5,70.5C 26.6114,65.6475 28.2781,60.3142 28.5,54.5C 30.0453,53.5481 31.712,53.2148 33.5,53.5C 33.8749,58.7486 36.2083,62.9153 40.5,66C 48.4408,71.1961 56.7741,72.1961 65.5,69C 68.9852,66.3829 70.6519,62.8829 70.5,58.5C 64.9045,58.3874 61.7378,55.7207 61,50.5C 65.5185,46.1878 70.5185,45.5211 76,48.5C 75.9828,54.9135 74.4828,61.0802 71.5,67C 76.5152,65.9864 79.6818,62.8198 81,57.5C 82.1244,54.5576 82.4577,51.5576 82,48.5C 78.6667,43.8333 75.3333,39.1667 72,34.5C 70.8553,28.8713 69.8553,23.2047 69,17.5C 66.7366,10.9028 62.2366,6.73611 55.5,5C 54.1667,4 54.1667,3 55.5,2C 66.2002,0.78845 75.2002,4.12178 82.5,12C 92.0857,17.4623 102.419,20.129 113.5,20C 119.795,22.4252 121.962,26.9252 120,33.5C 116.812,40.6782 111.312,43.5115 103.5,42C 97.7502,41.2089 92.9169,38.7089 89,34.5C 86.3459,29.3668 82.8459,24.8668 78.5,21C 76.8659,20.5065 75.1992,20.3398 73.5,20.5C 73.3398,22.1992 73.5065,23.8659 74,25.5C 87.3244,47.9242 107.158,59.7575 133.5,61C 143.55,65.0512 151.05,71.8845 156,81.5C 158.98,91.5737 162.147,101.574 165.5,111.5C 169.982,113.618 172.815,112.284 174,107.5C 175.865,95.8175 173.532,85.1508 167,75.5C 166.51,74.2068 166.343,72.8734 166.5,71.5C 171.543,70.4308 175.377,72.0974 178,76.5C 188.724,93.4329 189.057,110.433 179,127.5C 175.31,130.691 171.477,133.691 167.5,136.5C 164.489,144.391 160.823,151.891 156.5,159C 154.51,160.751 152.177,161.751 149.5,162C 134.5,162.667 119.5,162.667 104.5,162C 99.4012,160.305 97.5679,156.805 99,151.5C 99.9025,150.299 101.069,149.465 102.5,149C 109.833,148.667 117.167,148.333 124.5,148C 125.022,147.439 125.355,146.772 125.5,146C 123.681,143.511 121.848,141.011 120,138.5C 118.997,128.059 119.497,117.726 121.5,107.5C 130.042,104.093 134.375,97.7601 134.5,88.5C 133.872,77.9101 129.538,69.2435 121.5,62.5C 119.02,65.3609 118.02,68.6942 118.5,72.5C 112.036,72.598 106.536,74.9313 102,79.5C 91.1184,70.9555 87.4517,73.2888 91,86.5C 92.4395,92.6581 94.9395,98.3248 98.5,103.5C 94.6589,108.764 89.6589,112.597 83.5,115C 75.244,122.682 71.244,132.182 71.5,143.5 Z"/>
  </g>
  <g>
    <path style="opacity:1" fill="#7f4c0c" d="M 123.5,80.5 C 124.552,80.3505 125.552,80.5172 126.5,81C 126.167,81.3333 125.833,81.6667 125.5,82C 126.973,82.7096 127.64,83.8762 127.5,85.5C 125.833,85.5 124.167,85.5 122.5,85.5C 122.366,83.7085 122.699,82.0418 123.5,80.5 Z"/>
  </g>
  <g>
    <path style="opacity:1" fill="#82500f" d="M 107.5,87.5 C 108.873,87.3433 110.207,87.51 111.5,88C 112.079,89.4253 112.079,91.092 111.5,93C 106.728,93.8104 105.395,91.9771 107.5,87.5 Z"/>
  </g>
  <g>
    <path style="opacity:1" fill="#814f0f" d="M 120.5,90.5 C 121.833,90.5 123.167,90.5 124.5,90.5C 124.5,92.1667 124.5,93.8333 124.5,95.5C 119.285,95.9978 117.951,94.3311 120.5,90.5 Z"/>
  </g>
  <g>
    <path style="opacity:1" fill="#c6a988" d="M 71.5,143.5 C 71.8266,148.214 71.4933,152.88 70.5,157.5C 69.8933,157.376 69.56,157.043 69.5,156.5C 70.1667,152.167 70.8333,147.833 71.5,143.5 Z"/>
  </g>
</svg>